<?xml version="1.0" encoding="UTF-8" standalone="no"?>
<svg width="30px" height="47px" viewBox="0 0 30 47" version="1.1" xmlns="http://www.w3.org/2000/svg" xmlns:xlink="http://www.w3.org/1999/xlink">
    <!-- Generator: Sketch 39.1 (31720) - http://www.bohemiancoding.com/sketch -->
    <title>Group 22</title>
    <desc>Created with Sketch.</desc>
    <defs></defs>
    <g id="Blog-Individual" stroke="none" stroke-width="1" fill="none" fill-rule="evenodd">
        <g id="BlogIndividual_desktop-REV2" transform="translate(-107.000000, -1047.000000)">
            <g id="Group-22" transform="translate(107.000000, 1047.000000)">
                <path d="M6,30.4805492 C9.3137085,30.4805492 12,27.7512279 12,24.3844394 C12,21.0176509 9.3137085,18.2883295 6,18.2883295 C2.6862915,18.2883295 0,21.0176509 0,24.3844394 C0,27.7512279 2.6862915,30.4805492 6,30.4805492 Z" id="Oval-14" fill="#F5DCD2"></path>
                <g id="Group-21" transform="translate(10.000000, 28.448513)">
                    <path d="M14,18.2883295 C17.3137085,18.2883295 20,15.5590082 20,12.1922197 C20,8.82543118 17.3137085,6.09610984 14,6.09610984 C10.6862915,6.09610984 8,8.82543118 8,12.1922197 C8,15.5590082 10.6862915,18.2883295 14,18.2883295 Z" id="Oval-14-Copy-2" fill="#F5DCD2"></path>
                    <path d="M0,0 L9.89949494,10.0580681" id="Line" stroke="#F5DCD2" stroke-width="2" stroke-linecap="square"></path>
                </g>
                <g id="Group-16" transform="translate(10.000000, 0.000000)">
                    <path d="M14,12.1922197 C17.3137085,12.1922197 20,9.46289834 20,6.09610984 C20,2.72932134 17.3137085,0 14,0 C10.6862915,0 8,2.72932134 8,6.09610984 C8,9.46289834 10.6862915,12.1922197 14,12.1922197 Z" id="Oval-14-Copy" fill="#F5DCD2"></path>
                    <path d="M0,20.2182514 L9.89949472,10.1601831" id="Line" stroke="#F5DCD2" stroke-width="2" stroke-linecap="square"></path>
                </g>
            </g>
        </g>
    </g>
</svg>